<?xml version="1.0" standalone="no"?><!DOCTYPE svg PUBLIC "-//W3C//DTD SVG 1.1//EN" "http://www.w3.org/Graphics/SVG/1.1/DTD/svg11.dtd"><svg t="1717400334339" class="icon" viewBox="0 0 1024 1024" version="1.1" xmlns="http://www.w3.org/2000/svg" p-id="16719" xmlns:xlink="http://www.w3.org/1999/xlink" width="200" height="200"><path d="M146.833 846.007l28.312-28.256 21.192 21.234-28.312 28.256zM708.8 327.7l-56.2 56-21.2-21.2 56.2-56 21.2 21.2zM606.3 429.9l-56.2 56-21.2-21.2 56.2-56 21.2 21.2zM503.8 532.2l-56.2 56-21.1-21.2 56.2-56 21.1 21.2zM401.3 634.5l-56.2 56-21.1-21.2 56.2-56 21.1 21.2zM298.9 736.8l-56.2 56-21.2-21.2 56.2-56 21.2 21.2zM733.919 260.162l28.312-28.256 21.192 21.234-28.312 28.256z" p-id="16720"></path><path d="M810.2 311L849 166.5l-144.5 38.6z" p-id="16721"></path></svg>