<?xml version="1.0" standalone="no"?><!DOCTYPE svg PUBLIC "-//W3C//DTD SVG 1.1//EN" "http://www.w3.org/Graphics/SVG/1.1/DTD/svg11.dtd"><svg t="1706155361376" class="icon" viewBox="0 0 1024 1024" version="1.1" xmlns="http://www.w3.org/2000/svg" p-id="4408" xmlns:xlink="http://www.w3.org/1999/xlink" width="200" height="200"><path d="M512.9216 514.816m-436.2752 0a436.2752 436.2752 0 1 0 872.5504 0 436.2752 436.2752 0 1 0-872.5504 0Z" fill="#C0EFFF" p-id="4409"></path><path d="M847.9232 493.2608c0-150.4768-149.9648-272.4352-334.9504-272.4352S177.9712 342.784 177.9712 493.2608c0 132.8128 116.8896 243.4048 271.5648 267.4688l41.3696 72.3456c9.5232 16.64 33.6896 16.1792 42.5472-0.8704l36.6592-70.6048c157.7472-22.016 277.8112-133.7344 277.8112-268.3392z" fill="#6FCBF6" p-id="4410"></path><path d="M512.9216 313.088c-165.6832 0-303.2064 97.8432-330.0864 226.4064 23.5008 111.616 130.4064 199.9872 266.7008 221.2352l41.3696 72.3456c9.5232 16.64 33.6896 16.1792 42.5472-0.8704l36.6592-70.6048c139.264-19.5072 249.1392-108.9024 272.9472-222.208-26.9312-128.4608-164.4544-226.304-330.1376-226.304z" fill="#68BEF3" p-id="4411"></path><path d="M512.9216 405.4016c-145.152 0-268.6976 75.1104-315.2384 180.1216 39.5776 89.344 134.8608 156.9792 251.8016 175.2064l41.3696 72.3456c9.5232 16.64 33.6896 16.1792 42.5472-0.8704l36.6592-70.6048c119.808-16.7424 217.8048-85.248 258.048-176.1792-46.4896-104.96-170.0352-180.0192-315.1872-180.0192z" fill="#5CAAF0" p-id="4412"></path><path d="M512.9216 497.664c-122.8288 0-230.1952 53.8112-288.512 133.9904 48.0256 65.9968 129.28 114.1248 225.0752 129.0752l41.3696 72.3456c9.5232 16.64 33.6896 16.1792 42.5472-0.8704l36.6592-70.6048c98.5088-13.7728 182.272-62.5152 231.3216-129.9456-58.2144-80.1792-165.5808-133.9904-288.4608-133.9904z" fill="#4F94EB" p-id="4413"></path><path d="M490.9056 833.0752c9.5232 16.64 33.6896 16.1792 42.5472-0.8704l36.6592-70.6048c74.2912-10.3936 140.1856-40.6528 189.1328-83.8656-61.184-54.016-148.8896-87.8592-246.3232-87.8592s-185.088 33.8432-246.3232 87.8592c47.616 41.984 111.1552 71.7824 182.8864 82.944l41.4208 72.3968z" fill="#3A8CE6" p-id="4414"></path><path d="M519.2704 352.1024c-16.9472 0-30.72 13.7728-30.72 30.72v63.9488H422.0928V382.8224c0-16.9472-13.7728-30.72-30.72-30.72s-30.72 13.7728-30.72 30.72v189.3888c0 16.9472 13.7728 30.72 30.72 30.72s30.72-13.7728 30.72-30.72v-64h66.4576v63.9488c0 16.9472 13.7728 30.72 30.72 30.72s30.72-13.7728 30.72-30.72V382.8224c0-16.9984-13.7728-30.72-30.72-30.72zM629.2992 433.2544c-16.9472 0-30.72 13.7728-30.72 30.72v104.6016c0 16.9472 13.7728 30.72 30.72 30.72s30.72-13.7728 30.72-30.72V463.9744c0-16.9984-13.7728-30.72-30.72-30.72zM629.2992 411.0336a32.3584 32.3584 0 1 0-0.00512-64.72192 32.3584 32.3584 0 0 0 0.00512 64.72192z" fill="#FFFFFF" p-id="4415"></path></svg>