<?xml version="1.0" standalone="no"?><!DOCTYPE svg PUBLIC "-//W3C//DTD SVG 1.1//EN" "http://www.w3.org/Graphics/SVG/1.1/DTD/svg11.dtd"><svg t="1706680021496" class="icon" viewBox="0 0 1024 1024" version="1.1" xmlns="http://www.w3.org/2000/svg" p-id="9621" xmlns:xlink="http://www.w3.org/1999/xlink" width="200" height="200"><path d="M805.674783 578.227343L564.239933 819.662193c-28.461337 28.461337-75.045492 28.461337-103.506829 0L219.298254 578.227343c-28.461337-28.461337-28.461337-75.045492 0-103.50683l241.43485-241.43485c28.461337-28.461337 75.045492-28.461337 103.506829 0l241.43485 241.43485c28.461337 28.461337 28.461337 75.045492 0 103.50683z" fill="#E44B66" p-id="9622"></path><path d="M512.547333 853.475235c-21.406818 0-41.597339-8.270816-56.679415-23.352893l-246.908184-246.908184c-15.082076-15.082076-23.352892-35.150968-23.352892-56.679415 0-21.406818 8.270816-41.597339 23.352892-56.679416l246.908184-246.908184c15.082076-15.082076 35.150968-23.352892 56.679415-23.352892 21.406818 0 41.597339 8.270816 56.679416 23.352892l246.908184 246.908184c31.258819 31.258819 31.258819 82.100012 0 113.237202l-246.908184 246.908184c-15.082076 15.203706-35.272598 23.474522-56.679416 23.474522z m0-631.379499c-17.879558 0-34.786079 6.93289-47.313932 19.460743L227.6907 479.22081c-12.527854 12.527854-19.460744 29.434375-19.460744 47.313933s6.93289 34.786079 19.460744 47.313933l237.542701 237.542701c12.527854 12.527854 29.434375 19.460744 47.313932 19.460743s34.786079-6.93289 47.313933-19.460743l237.542701-237.542701c26.150374-26.150374 26.150374-68.599121 0-94.627866L559.861266 241.678109c-12.649483-12.649483-29.434375-19.582373-47.313933-19.582373z" fill="#2D313D" p-id="9623"></path><path d="M575.308231 615.932534c-20.312151-6.81126-28.582967-19.460744-24.690818-37.826821 2.919112-11.676446 9.243853-24.690818 18.852595-39.286376-15.446965-0.973037-25.177337-6.324742-29.069485-16.055113-10.703409 0-18.852595-3.892149-24.690819-11.676446-28.096449 15.446965-63.977194 20.79867-107.642238 16.055113-39.772895-3.892149-58.62549-19.947262-56.679415-48.043711 0-18.487706 3.892149-39.772895 11.676446-63.977194-2.919112-2.919112-4.378667-7.297779-4.378667-13.136002 0.973037-10.703409 10.21689-16.420002 27.60993-17.514669 30.042523-2.919112 66.409787-2.432593 109.101793 1.459556 4.865186-6.81126 11.189928-10.21689 18.852595-10.216891 9.730372 0 18.001188 9.730372 24.690819 29.069486 5.838223 25.177337 9.730372 53.881934 11.676446 85.870531 4.865186-5.838223 13.136002-7.297779 24.690818-4.378667-1.946074-30.042523-2.432593-58.74712-1.459555-85.870531 0.973037-17.514669 8.757335-26.636893 23.231262-27.60993 12.649483 1.946074 19.460744 10.703409 20.312151 26.150374 0.973037 8.757335-0.486519 31.502079-4.378667 68.355862v7.297778c7.784297-8.757335 18.852595-18.487706 33.448153-29.069485 12.649483-6.81126 23.231263-6.324742 31.988597 1.459556 4.865186 8.757335 2.432593 19.339114-7.297779 31.988597-38.799857 46.584155-61.544601 77.599715-68.355861 93.04668-0.973037 2.919112-0.973037 4.865186 0 5.838223 0.973037 1.946074 2.919112 2.432593 5.838223 1.459556 11.676446-1.946074 22.379855-3.892149 31.988597-5.838223 16.541632 1.946074 26.636893 8.270816 30.529041 18.852595 0 12.649483-6.81126 20.312151-20.312151 23.231263-27.001782 5.230075-52.179119 5.230075-75.532011 0.364889z m-161.402541 21.893336c-23.231263-5.838223-35.394227-17.028151-36.367265-33.448153 0-10.703409 0.486519-18.487706 1.459556-23.231263-5.838223-5.838223-8.757335-11.676446-8.757335-17.514669 0.973037-9.730372 7.784297-15.082076 20.312151-16.055113 11.676446-0.973037 32.475116-0.973037 62.517639 0h34.907709c0.973037-8.757335 5.838223-13.136002 14.595557-13.136002 11.676446 0.973037 19.460744 7.297779 23.231263 18.852595 4.865186 20.312151 5.351704 40.745932 1.459556 61.058083-2.919112 12.649483-8.270816 19.339114-16.055114 20.312151-5.838223 0.973037-10.21689-2.919112-13.136002-11.676446-5.838223 5.838223-13.987409 9.730372-24.690818 11.676446-19.217484 6.081482-39.164746 6.93289-59.476897 3.162371z m-16.055114 50.841193c-16.420002-2.919112-25.177337-9.243853-26.150374-18.852596 0-8.757335 8.757335-14.595558 26.150374-17.514669 31.988597-2.919112 70.301936-2.919112 114.940017 0 14.595558 0.973037 22.744744 6.81126 24.690818 17.514669-0.973037 9.730372-8.757335 16.055113-23.231263 18.852596-34.907709 5.838223-73.707566 5.838223-116.399572 0z m14.595558-192.053213h18.852595v-23.231263h-17.514669c-9.730372-2.919112-14.595558-8.757335-14.595558-17.514669 0-5.838223 4.865186-10.703409 14.595558-14.595558h8.757334c3.892149-0.973037 6.81126-1.459556 8.757335-1.459556v-21.771706c-5.838223 0.973037-13.62252 1.459556-23.231263 1.459555-7.784297 21.285188-11.676446 41.718969-11.676446 61.058083-0.973037 10.825039 4.378667 16.055113 16.055114 16.055114z m14.473928 107.763867c14.595558 0 27.60993-1.459556 39.286376-4.378667 9.730372-1.946074 17.514669-1.459556 23.231262 1.459556 0-5.838223-0.486519-12.162965-1.459555-18.852596-14.595558 0.973037-38.799857 2.432593-72.734529 4.378668-0.973037 2.919112-1.459556 5.351704-1.459556 7.297778 1.094667 6.568001 5.473334 10.095261 13.136002 10.095261z m71.274973-165.902839c0-3.892149-0.973037-10.21689-2.919111-18.852595 1.946074 5.838223 1.946074 4.378667 0-4.378667-2.919112 0-7.784297 0.486519-14.595558 1.459555h-14.595558v21.771707h32.110227z m10.21689 52.422378c0-1.946074-0.486519-4.378667-1.459555-7.297779-1.946074-5.838223-2.919112-10.703409-2.919112-14.595557-13.62252 1.946074-25.663856 2.919112-36.367264 2.919111v21.893337c16.541632-4.865186 30.042523-5.838223 40.745931-2.919112z m86.965198 205.675734c-20.312151 0.973037-31.502079-7.784297-33.448153-26.150374 1.946074-17.514669 11.189928-27.60993 27.60993-30.529042 20.312151-0.973037 31.502079 8.270816 33.448153 27.60993-0.973037 18.487706-10.21689 28.096449-27.60993 29.069486z" fill="#F5EA29" p-id="9624"></path><path d="M512.182444 287.897375m-27.4883 0a27.4883 27.4883 0 1 0 54.976601 0 27.4883 27.4883 0 1 0-54.976601 0Z" fill="#ED8896" p-id="9625"></path><path d="M512.182444 760.306925m-27.4883 0a27.4883 27.4883 0 1 0 54.976601 0 27.4883 27.4883 0 1 0-54.976601 0Z" fill="#ED8896" p-id="9626"></path><path d="M473.382587 310.885378c-3.040741-3.162371-7.905927-3.162371-10.946668-0.121629l-54.490082 53.517044c-2.797482 2.797482-2.675852 7.419408 0.364889 10.095261l1.094667 0.973037c2.797482 2.432593 7.05452 2.310963 9.730371-0.364889l54.125193-53.152155c2.919112-3.040741 3.040741-7.905927 0.12163-10.946669zM298.235895 559.131488c-18.852595-18.852595-18.852595-49.381637 0-68.234232l53.030526-51.084452c3.284-3.284 2.919112-8.757335-0.729778-11.554816-3.040741-2.310963-7.419408-2.067704-10.09526 0.729778l-53.030527 51.084452c-24.812448 24.812448-24.812448 65.193491 0 90.005939l76.14016 76.140159c3.040741 3.040741 8.027557 3.040741 11.068297-0.12163 2.919112-3.040741 2.797482-7.784297-0.121629-10.703409l-76.261789-76.261789zM440.542582 700.586768c-2.554223-2.554223-6.568001-3.040741-9.608742-0.973037-4.135408 2.675852-4.743556 8.514075-1.337926 11.919705l33.934672 33.934672c2.675852 2.675852 6.93289 3.040741 9.973631 0.729778 3.892149-2.797482 4.257038-8.392446 0.973037-11.676446L440.542582 700.586768zM739.994774 479.09918l-176.727878-173.930395c-3.040741-2.919112-7.905927-2.797482-10.703409 0.364889-2.675852 2.919112-2.432593 7.419408 0.364889 10.21689L729.169735 490.167478c9.122224 9.122224 14.109039 21.163559 14.109039 34.056302 0 12.892743-4.986816 25.055707-14.109039 34.056301l-97.060458 97.060458c-3.040741 3.040741-3.040741 8.149186 0.243259 11.068298 3.040741 2.797482 7.784297 2.675852 10.703409-0.243259l97.060458-97.060459c11.919705-11.919705 18.609336-27.974819 18.609336-45.002969-0.12163-17.028151-6.689631-32.961634-18.730965-45.00297zM591.606604 705.208695c-3.040741-2.310963-7.419408-2.067704-10.21689 0.608148l-31.01556 30.164152c-3.162371 3.162371-2.919112 8.392446 0.486518 11.311558 3.040741 2.554223 7.662668 2.432593 10.46015-0.364889l31.01556-30.164153c3.40563-3.284 3.040741-8.757335-0.729778-11.554816z" fill="#ED8896" p-id="9627"></path><path d="M480.923625 253.354555m-11.433187 0a11.433187 11.433187 0 1 0 22.866374 0 11.433187 11.433187 0 1 0-22.866374 0Z" fill="#FFFFFF" p-id="9628"></path><path d="M383.133389 365.983609l84.289345-85.627272c3.648889-3.648889 3.770519-9.730372 0.12163-13.500891-3.770519-3.892149-9.973631-3.892149-13.74415-0.12163l-84.654235 86.113791c-3.52726 3.52726-3.284 9.243853 0.486519 12.527853l1.337926 1.094667c3.52726 3.040741 8.878964 2.797482 12.162965-0.486518z" fill="#FFFFFF" p-id="9629"></path></svg>