<?xml version="1.0" standalone="no"?><!DOCTYPE svg PUBLIC "-//W3C//DTD SVG 1.1//EN" "http://www.w3.org/Graphics/SVG/1.1/DTD/svg11.dtd"><svg t="1705540121710" class="icon" viewBox="0 0 1024 1024" version="1.1" xmlns="http://www.w3.org/2000/svg" p-id="9515" xmlns:xlink="http://www.w3.org/1999/xlink" width="200" height="200"><path d="M19.692308 512A25 25 0 1 1 19.692308 531.692308Z" fill="#7A7A7A" p-id="9516"></path><path d="M512 303.027832C512 286.548884 524.86564 273.174666 540.717948 273.174666L598.153846 273.174666C614.006154 273.174666 626.871794 286.548884 626.871794 303.027832L626.871794 362.734167C626.871794 379.213115 614.006154 392.587333 598.153846 392.587333L540.717948 392.587333C524.86564 392.587333 512 379.213115 512 362.734167L512 303.027832 512 303.027832ZM512 482.146834 512 541.853166C512 558.332115 499.13436 571.706335 483.282052 571.706335L425.846154 571.706335C409.993846 571.706335 397.128206 558.332115 397.128206 541.853166L397.128206 482.146834C397.128206 465.667885 409.993846 452.293665 425.846154 452.293665L483.282052 452.293665C499.13436 452.293665 512 465.667885 512 482.146834L512 482.146834ZM339.692308 303.027832C339.692308 286.548884 352.557948 273.174666 368.410256 273.174666L425.846154 273.174666C441.698462 273.174666 454.564102 286.548884 454.564102 303.027832L454.564102 362.734167C454.564102 379.213115 441.698462 392.587333 425.846154 392.587333L368.410256 392.587333C352.557948 392.587333 339.692308 379.213115 339.692308 362.734167L339.692308 303.027832 339.692308 303.027832ZM167.384615 303.027832C167.384615 286.548884 180.250256 273.174666 196.102564 273.174666L253.538462 273.174666C269.390769 273.174666 282.25641 286.548884 282.25641 303.027832L282.25641 362.734167C282.25641 379.213115 269.390769 392.587333 253.538462 392.587333L196.102564 392.587333C180.250256 392.587333 167.384615 379.213115 167.384615 362.734167L167.384615 303.027832 167.384615 303.027832ZM282.25641 720.972168C282.25641 737.451116 269.390769 750.825334 253.538462 750.825334L196.102564 750.825334C180.250256 750.825334 167.384615 737.451116 167.384615 720.972168L167.384615 661.265833C167.384615 644.786885 180.250256 631.412667 196.102564 631.412667L253.538462 631.412667C269.390769 631.412667 282.25641 644.786885 282.25641 661.265833L282.25641 720.972168 282.25641 720.972168ZM310.97436 571.706335 253.538462 571.706335C237.686154 571.706335 224.820513 558.332115 224.820513 541.853166L224.820513 482.146834C224.820513 465.667885 237.686154 452.293665 253.538462 452.293665L310.97436 452.293665C326.826667 452.293665 339.692308 465.667885 339.692308 482.146834L339.692308 541.853166C339.692308 558.332115 326.826667 571.706335 310.97436 571.706335L310.97436 571.706335ZM569.435898 720.972168C569.435898 737.451116 556.570256 750.825334 540.717948 750.825334L368.410256 750.825334C352.557948 750.825334 339.692308 737.451116 339.692308 720.972168L339.692308 661.265833C339.692308 644.786885 352.557948 631.412667 368.410256 631.412667L540.717948 631.412667C556.570256 631.412667 569.435898 644.786885 569.435898 661.265833L569.435898 720.972168 569.435898 720.972168ZM569.435898 541.853166 569.435898 482.146834C569.435898 465.667885 582.301538 452.293665 598.153846 452.293665L655.589744 452.293665C671.442052 452.293665 684.307692 465.667885 684.307692 482.146834L684.307692 541.853166C684.307692 558.332115 671.442052 571.706335 655.589744 571.706335L598.153846 571.706335C582.301538 571.706335 569.435898 558.332115 569.435898 541.853166L569.435898 541.853166ZM856.615385 720.972168C856.615385 737.451116 843.749744 750.825334 827.897437 750.825334L655.589744 750.825334C639.737437 750.825334 626.871794 737.451116 626.871794 720.972168L626.871794 661.265833C626.871794 644.786885 639.737437 631.412667 655.589744 631.412667L713.02564 631.412667C728.877948 631.412667 741.74359 618.038449 741.74359 601.559501L741.74359 482.146834C741.74359 465.667885 754.609231 452.293665 770.461538 452.293665L827.897437 452.293665C843.749744 452.293665 856.615385 465.667885 856.615385 482.146834L856.615385 720.972168 856.615385 720.972168ZM856.615385 362.734167C856.615385 379.213115 843.749744 392.587333 827.897437 392.587333L713.02564 392.587333C697.173333 392.587333 684.307692 379.213115 684.307692 362.734167L684.307692 303.027832C684.307692 286.548884 697.173333 273.174666 713.02564 273.174666L827.897437 273.174666C843.749744 273.174666 856.615385 286.548884 856.615385 303.027832L856.615385 362.734167 856.615385 362.734167Z" p-id="9517"></path></svg>