<?xml version="1.0" standalone="no"?><!DOCTYPE svg PUBLIC "-//W3C//DTD SVG 1.1//EN" "http://www.w3.org/Graphics/SVG/1.1/DTD/svg11.dtd"><svg t="1717396884710" class="icon" viewBox="0 0 1879 1024" version="1.1" xmlns="http://www.w3.org/2000/svg" p-id="9871" xmlns:xlink="http://www.w3.org/1999/xlink" width="366.9921875" height="200"><path d="M553.877457 906.654335v-141.021965L1053.891329 254.520231l88.19422 90.117919s27.819653 26.339884 54.455491 0 0-55.639306 0-55.639306l-115.421965-117.937572s-28.707514-26.191908-54.455491 0-534.048555 545.886705-534.048555 545.886705-15.685549 13.465896-15.685549 40.397688v188.67052s1.183815 33.442775 34.478612 39.36185h196.217342s17.313295-1.479769 33.590751-18.05318l614.843931-630.085549s96.776879-108.910983 5.623121-229.364161c0 0-91.449711-123.116763-238.094798-31.815029 0 0-30.927168 21.604624-31.223121 45.428901-0.295954 23.824277 21.308671 42.913295 44.09711 38.917919 0 0 11.83815-2.36763 21.456647-11.098265 0 0 54.603468-58.154913 126.224278-9.322544 0 0 43.061272 31.223121 38.769942 83.606937 0 0 5.475145 38.473988-51.495954 90.561849L691.791908 906.654335h-137.914451z" fill="#212121" p-id="9872"></path></svg>