<?xml version="1.0" standalone="no"?><!DOCTYPE svg PUBLIC "-//W3C//DTD SVG 1.1//EN" "http://www.w3.org/Graphics/SVG/1.1/DTD/svg11.dtd"><svg t="1717462743374" class="icon" viewBox="0 0 1024 1024" version="1.1" xmlns="http://www.w3.org/2000/svg" p-id="5935" xmlns:xlink="http://www.w3.org/1999/xlink" width="200" height="200"><path d="M890.33 746.33L689 672 576.42 99.56a27 27 0 0 0-9.84-16c-2.45-1.92-24.79-18.74-54.58-18.74s-52.13 16.82-54.58 18.74a27 27 0 0 0-9.84 16L335 672l-201.33 74.33a27 27 0 0 0-1.42 50.09L501.23 957a27 27 0 0 0 21.55 0l369-160.57a27 27 0 0 0-1.42-50.09zM393.42 655c37 8.94 77.36 13.62 118.58 13.62s81.6-4.72 118.58-13.62l17 86.64C607 754.14 560.6 760.73 512 760.73s-95-6.59-135.62-19.12zM512 376.93a533.43 533.43 0 0 0 63.19-3.71l23.46 119.31a476.14 476.14 0 0 1-173.3 0l23.46-119.31a533.44 533.44 0 0 0 63.19 3.71z m-52.74-56.86l10.41-52.93c14 1.1 28.12 1.67 42.34 1.67s28.37-0.57 42.34-1.67l10.41 52.94a481.11 481.11 0 0 1-52.76 2.85 481.1 481.1 0 0 1-52.74-2.87zM512 554.47a515.6 515.6 0 0 0 97.07-8.93l11.09 56.39c-33.41 8.3-70.29 12.66-108.16 12.66s-74.74-4.35-108.16-12.66l11.09-56.39a515.58 515.58 0 0 0 97.07 8.93z m0-435.7a35.85 35.85 0 0 1 13.79 3.17l18.05 91.82c-10.52 0.69-21.16 1-31.84 1s-21.32-0.35-31.84-1l18.05-91.83a35.47 35.47 0 0 1 13.79-3.16z m0 784L215.41 773.72l107.42-39.65-4.14 21.05a27 27 0 0 0 21.31 31.7c0.78 0.15 1.57 0.27 2.35 0.35 50 18 108.52 27.56 169.68 27.56s119.63-9.52 169.67-27.56c0.78-0.08 1.57-0.2 2.35-0.35a27 27 0 0 0 21.28-31.7l-4.14-21.05 107.42 39.65z" p-id="5936"></path></svg>