<?xml version="1.0" standalone="no"?><!DOCTYPE svg PUBLIC "-//W3C//DTD SVG 1.1//EN" "http://www.w3.org/Graphics/SVG/1.1/DTD/svg11.dtd"><svg t="1717463255677" class="icon" viewBox="0 0 1024 1024" version="1.1" xmlns="http://www.w3.org/2000/svg" p-id="19374" xmlns:xlink="http://www.w3.org/1999/xlink" width="200" height="200"><path d="M695.168 592.64l13.44 56.704 230.848 88.768a32 32 0 0 1 5.504 57.088l-5.504 2.688-416 160a32 32 0 0 1-17.28 1.6l-5.632-1.6-416-160a32 32 0 0 1-5.504-57.088l5.504-2.688 230.784-88.768 13.504-56.704C375.68 624.448 436.992 640 512 640c75.008 0 136.32-15.552 183.168-47.36z m-43.648-183.296l27.2 114.432-5.376 5.056c-33.28 28.736-81.28 44.608-145.088 46.912L512 576c-77.44 0-133.376-18.624-169.344-54.656l2.56 2.432 27.264-114.432a250.176 250.176 0 0 0 123.008 38.208L512 448c52.48 0 99.2-12.928 139.52-38.656zM512 64c30.976 0 58.24 19.648 68.352 48.384l2.176 7.36 52.928 222.272C601.6 370.112 560.768 384 512 384c-48.832 0-89.6-13.888-123.52-42.048l52.992-222.208c7.168-30.208 32.64-52.16 62.848-55.36L512 64z" p-id="19375" fill="#eb9c38"></path></svg>