<?xml version="1.0" standalone="no"?><!DOCTYPE svg PUBLIC "-//W3C//DTD SVG 1.1//EN" "http://www.w3.org/Graphics/SVG/1.1/DTD/svg11.dtd"><svg t="1717491003378" class="icon" viewBox="0 0 1024 1024" version="1.1" xmlns="http://www.w3.org/2000/svg" p-id="22120" xmlns:xlink="http://www.w3.org/1999/xlink" width="200" height="200"><path d="M602.88 128a469.76 469.76 0 0 1 283.477333 160H832a32 32 0 0 0 0 64h128a32 32 0 0 0 32-32v-128a32 32 0 1 0-64 0v46.677333A530.517333 530.517333 0 0 0 613.12 64a32.426667 32.426667 0 0 0-10.24 64z m357.12 320h-640A64 64 0 0 0 256 512v384c0 35.328 28.672 64 64 64h640a64 64 0 0 0 64-64V512a64 64 0 0 0-64-64z m0 448h-640V512h640v384zM64 64h384V384H512V64A64 64 0 0 0 448 0H64A64 64 0 0 0 0 64V768c0 35.328 28.672 64 64 64h128V768H64V64z" fill="#333333" p-id="22121"></path></svg>