<?xml version="1.0" standalone="no"?><!DOCTYPE svg PUBLIC "-//W3C//DTD SVG 1.1//EN" "http://www.w3.org/Graphics/SVG/1.1/DTD/svg11.dtd"><svg t="1706677380705" class="icon" viewBox="0 0 1024 1024" version="1.1" xmlns="http://www.w3.org/2000/svg" p-id="7755" xmlns:xlink="http://www.w3.org/1999/xlink" width="200" height="200"><path d="M512 1023.998009a508.698466 508.698466 0 0 1-362.067925-149.958528A508.641578 508.641578 0 0 1 0.001991 512 508.584689 508.584689 0 0 1 149.960519 149.988963 508.670022 508.670022 0 0 1 512 0.001991a508.641578 508.641578 0 0 1 362.039481 149.958528A508.584689 508.584689 0 0 1 1023.998009 512a508.641578 508.641578 0 0 1-149.958528 362.067925A508.641578 508.641578 0 0 1 512 1023.998009z m0-967.10735A452.264908 452.264908 0 0 0 190.209251 190.209251 452.264908 452.264908 0 0 0 56.890659 512a452.264908 452.264908 0 0 0 133.318592 321.819193A452.094242 452.094242 0 0 0 512 967.109341a452.094242 452.094242 0 0 0 321.790749-133.290148A452.264908 452.264908 0 0 0 967.109341 512a452.264908 452.264908 0 0 0-133.318592-321.790749A452.264908 452.264908 0 0 0 512 56.890659z m0 881.774348A427.120117 427.120117 0 0 1 85.334993 512 427.120117 427.120117 0 0 1 512 85.334993a427.120117 427.120117 0 0 1 426.665007 426.665007 427.120117 427.120117 0 0 1-426.665007 426.665007z m-63.40242-350.377304c-3.41332 0-6.82664 0-10.154627 0.255999a174.050879 174.050879 0 0 0-51.91091 10.126183 133.688369 133.688369 0 0 0-49.919805 33.251426 75.093041 75.093041 0 0 0-23.523464 51.199801 81.265462 81.265462 0 0 0 15.815049 49.891362 123.277743 123.277743 0 0 0 45.823822 37.745631 130.21816 130.21816 0 0 0 58.680661 13.198171c2.417768 0 4.892425 0 7.822191-0.227555a160.682042 160.682042 0 0 0 60.842431-13.397281 120.148866 120.148866 0 0 0 38.940293-27.96078 92.728528 92.728528 0 0 0 19.911033-34.901198 100.806719 100.806719 0 0 0 4.863981-33.251426v-99.384503c0-24.519016 0-49.891362 0.398221-77.0557s0.426665-51.939354 0.426665-75.861038v-85.589001a14.222167 14.222167 0 0 1 7.708414-13.795502 7.736859 7.736859 0 0 1 3.583986-0.824885 29.638996 29.638996 0 0 1 17.493266 10.183071 449.420474 449.420474 0 0 0 36.067415 32.02832 117.2191 117.2191 0 0 0 49.919806 22.755467 80.92413 80.92413 0 0 1 39.822067 16.66838 56.177559 56.177559 0 0 1 15.786606 36.067415 52.252241 52.252241 0 0 0 5.290646 20.707475 11.09329 11.09329 0 0 0 7.708414 6.087088h0.568887c3.128877 0 7.02575-3.583986 10.410626-6.911974a67.384627 67.384627 0 0 0 8.903076-23.523464 93.667191 93.667191 0 0 0-0.426665-32.02832 67.697515 67.697515 0 0 0-17.436376-33.678091 115.370218 115.370218 0 0 0-26.367898-24.34835 155.562062 155.562062 0 0 0-23.950129-12.970616l-6.143976-2.844433-0.739552-0.341332a680.217799 680.217799 0 0 0-19.484369-8.5333 164.40825 164.40825 0 0 1-32.88165-20.650587 169.243786 169.243786 0 0 1-34.872753-32.085208 511.059346 511.059346 0 0 1-21.503917-29.212331 96.710735 96.710735 0 0 0-17.0666-19.911034 23.722574 23.722574 0 0 0-16.071049-5.688867 37.489632 37.489632 0 0 0-5.375979 0.426665 35.782972 35.782972 0 0 0-25.201679 13.397282 46.648707 46.648707 0 0 0-9.329742 29.582107v12.14573a24387.745159 24387.745159 0 0 0-0.711108 154.16829v176.866868a219.704034 219.704034 0 0 0-29.212331-8.106636 161.023374 161.023374 0 0 0-34.502977-3.697763z" fill="#4D4D4D" opacity=".7" p-id="7756"></path></svg>