<svg xmlns="http://www.w3.org/2000/svg" width="968" height="738" viewBox="0 0 968 738">
  <path id="形状_316_1_拷贝_9" data-name="形状 316 1 拷贝 9" class="cls-1" d="M933.063,599.139l-5.981-1c-5.506-23.578-23.514-34.252-53.83-25.962-20.207,5.526-37.216,16.36-54.826,22.967-35.49,13.314-74.137,17.22-103.607,34.6L709,628c-21.1-6.811,5-13,5-13,5.509-4.678.055-12.923-3.836-17.568C718.206,600.165,728,596,728,596c5.672-5.832,22-14,22-14,48.795-22.4,62.781-36.468,66.616-41.693,0.268,0.7.539,1.34,0.813,1.914,12.478-1,50.839-12.981,50.839-12.981,1.708,1.25,6.656,10.553,8.972,13.98l31.9,1L920.1,536.23c3.684-1.231,2.894,2.605,3.987,3.994l-1,9.986c5.389-1.62,21.95-5.155,25.918,1,2.857,3.3,3.852,7.87,3.987,13.98Z"/>
  <path id="形状_316_1_拷贝_8" data-name="形状 316 1 拷贝 8" class="cls-1" d="M709,628l5.819,1.746a96.618,96.618,0,0,0-12.027,8.336C686.848,651.088,688.9,681.414,673.883,695c-15.116-2.278-32.408-46.493-52.833-55.919v-4.993l-0.129-.009L621,634s7.889,6.6,26,1c0,0,4.925-4.75,14-3l-0.93-32.553c1.2-.256,1.93-0.447,1.93-0.447,14.831-8.634,47-2,47-2,0.381,0.167.773,0.3,1.164,0.432,3.891,4.645,9.345,12.89,3.836,17.568C714,615,687.9,621.189,709,628Z"/>
  <path id="形状_316_1_拷贝_7" data-name="形状 316 1 拷贝 7" class="cls-1" d="M621.978,585.684q-0.048-.678-0.089-1.276C621.927,584.95,621.958,585.4,621.978,585.684Zm0.015,0.21c0,0.02,0,.048,0,0.062h0C622,585.934,621.994,585.915,621.993,585.894Zm-51.782,46.2c-1.347-21.321,10.854-36.3,11.963-59.913h2.99c7.84,2.956,29.107,7.481,32.9,14.978l3.956-.991C623.19,601.46,637,596,637,596c3.442,6.9,17.82,4.56,23.07,3.447L661,632c-9.075-1.75-14,3-14,3-18.111,5.6-26-1-26-1l-0.079.079C603.613,632.637,581.563,639.453,570.211,632.091Z"/>
  <path id="形状_316_1_拷贝_6" data-name="形状 316 1 拷贝 6" class="cls-1" d="M813.442,460.34l-2.991,13.98,4.984,4.993c1.8,4.8-1.465,11.023-1.993,12.981-3.849,14.26-.8,37.618,3.174,48.013C812.781,545.532,798.794,559.6,750,582c0,0-16.328,8.168-22,14,0,0-10.775,4.6-19,1,0,0-32.169-6.634-47,2,0,0-20.768,5.479-25-3,0,0-13.81,5.46-14.984-9.835l0.031-.007c-0.016-.068-0.033-0.135-0.05-0.2,0-.014,0-0.042,0-0.062-0.006-.074-0.01-0.138-0.015-0.21-0.02-.282-0.051-0.734-0.089-1.276-0.01-.14-0.019-0.268-0.028-0.4-0.007-.1-0.015-0.206-0.022-0.313-0.044-.627-0.082-1.174-0.116-1.657-0.013-.194-0.027-0.386-0.04-0.573,0-.028,0-0.051,0-0.079-0.028-.4-0.054-0.773-0.077-1.1-0.007-.1-0.013-0.182-0.019-0.269l-0.032-.462c-0.012-.171-0.02-0.288-0.025-0.356-0.007-.107-0.008-0.11,0,0,0,0.075.014,0.2,0.025,0.356,0.008,0.124.019,0.279,0.032,0.462,0.006,0.086.012,0.175,0.019,0.269,0.021,0.3.047,0.668,0.077,1.1,0,0.026,0,.052,0,0.079,0.013,0.176.026,0.375,0.04,0.573,0.039,0.555.079,1.125,0.116,1.657,0.007,0.1.014,0.209,0.022,0.313,0.009,0.139.019,0.273,0.028,0.4q0.042,0.6.089,1.276c0.006,0.089.011,0.158,0.015,0.21,0,0.021,0,.04,0,0.062q-0.972-3.893-1.943-7.787c11.983-8.046,25.382-17.555,28.908-33.95-0.3.112-.591,0.24-0.883,0.363C659.089,524.433,677,537,677,537c22.755-.155,0-24,0-24-9.351-7.275,3-23,3-23,6.759-15.643,23,0,23,0,33.49,26.583,46,0,46,0,16.948-18.916,16.471-42.372,16.1-47.825a47.491,47.491,0,0,0,9.464,7.181l5.981-4.993q3.487,2,6.978,3.994c5.321-3.574,7.244-5.5,12.959-6.989C803.816,447.955,811.727,452.453,813.442,460.34Z"/>
  <path id="形状_316_1_拷贝_5" data-name="形状 316 1 拷贝 5" class="cls-1" d="M749,490s-12.51,26.583-46,0c0,0-16.241-15.643-23,0,0,0-12.351,15.725-3,23,0,0,22.755,23.845,0,24,0,0-17.911-12.567-28.921,7.582-14.428,6.109-16.622,25.577-36,29.593-26.079,5.4-28.372-23.8-50.839-17.974-4.635,1.2-10.165,4.851-15.941,8.741L543,561s-2.548-67.069,0-73c0,0,1.679-6.167,5-5,0,0,5.455.125,1-7,0,0-6.216-6.472-3-15,0,0,1.935-8.074-1-10,0,0-3.246-3.066,5-2,0,0,18.632,2.274,18-11,0,0,1.477-9.605-27-21,0,0,1.722.3,5-4,0,0,1.611-9.1,1-11,0,0,5.04.672,7-1,0,0-.775-3.834,3-4,0,0,4.76.641,2-5,0,0-12.033-26.741-22-39,0,0-2.954-6.1,5-6,0,0,8.186,1.547,8-5,0,0-3.428-11.215-5-13,0,0-1.514-1.009,1-2,0,0,10.993-3.546,6-13,0,0-1.262-3.572-1.105-5.44h0.376v2l4.985-3,1-2c-2.124-9.838-2.307-21.041-12.959-24.963l10.966-12.982c6.1,1.666,10.52-.266,16.946-1,27.143,17.591,65.2,46.145,79.748,80.883,10.1,0.542,13.813-.494,20.933,3,1.325,7.988,4.867,23.445,6.978,24.964l2.991,2c7.478-2.352,10.691-6.907,19.937-7.988,6.812,11.19,7.826,6.076,14.952,11.982,4.091,3.391,2.1,7.761,3.988,10.985l15.949,11.982-1,11.983c11.291,4.518,18.781,16.624,28.416,25.771C765.471,447.628,765.948,471.084,749,490Z"/>
  <path id="形状_316_1_拷贝_4" data-name="形状 316 1 拷贝 4" class="cls-1" d="M467.653,363c-0.191.642-.4,1.3-0.653,2,0,0-1.33,41.272,2,47,0,0,21.03,19.367,11,31,0,0-25.785,56.422-37.4,63.659l-3.975.613c-16.472,11.224-12.1,47.62-28.909,57.916-15.683,8.356-68.081-50.6-78.751-61.91,0.652-12.01,3.305-28.063-.075-38.861L334,462s12.028-6.489-3-9c0,0-11.568-2.026,2-20,0,0,3.114-13.377,6-17,0,0-.54-12.284-5-15a25.8,25.8,0,0,1,21-6s5.222-20.436,12-11c0,0-3.356,11.734,4,16a17.525,17.525,0,0,0,9,9,24.78,24.78,0,0,1,2,7s5.625,7.226,16-1c0,0,7.927,2.95,14-1,0,0-1.186-2.79,7-6,0,0,2.727-4.105,7-5,0,0,7.44.519,10-3,0,0-.8-8.241,5-10,0,0,9.231-1.139,9-13,0,0-2.225-13.045,14-14h3.653Z"/>
  <path id="形状_316_1_拷贝_3" data-name="形状 316 1 拷贝 3" class="cls-1" d="M568,438c0.632,13.274-18,11-18,11-8.246-1.066-5,2-5,2,2.935,1.926,1,10,1,10-3.216,8.528,3,15,3,15,4.455,7.125-1,7-1,7-3.321-1.167-5,5-5,5-2.548,5.931,0,73,0,73l2.3,3.942c-9.634,6.488-19.949,13.646-27.92,11.23-7.932-4.7-7.263-15.992-10.966-24.964-7.929-19.213-25.957-51.088-54.826-45.933l-8.984,1.384C454.215,499.422,480,443,480,443c10.03-11.633-11-31-11-31-3.33-5.728-2-47-2-47,5.479-15.181-4-17-4-17-17.429-.672-18-3-18-3-11.187-13.337-7-32-7-32-8.3-8.1-4-15-4-15,6.677-7.369,6.558-22.9,5.817-31.984,1.121,1,1.8,1.6,1.8,1.6,33.478-9.787,55.23,6.452,78.751,15.977l27.912,2,6.978,16.976-5.981,5.991H550.9C550.738,310.428,552,314,552,314c4.993,9.454-6,13-6,13-2.514.991-1,2-1,2,1.572,1.785,5,13,5,13,0.186,6.547-8,5-8,5-7.954-.1-5,6-5,6,9.967,12.259,22,39,22,39,2.76,5.641-2,5-2,5-3.775.166-3,4-3,4-1.96,1.672-7,1-7,1,0.611,1.9-1,11-1,11-3.278,4.3-5,4-5,4C569.477,428.4,568,438,568,438Z"/>
  <path id="形状_316_1_拷贝_2" data-name="形状 316 1 拷贝 2" class="cls-1" d="M621.663,581.167c-0.022-.307-0.042-0.594-0.06-0.853C621.62,580.553,621.64,580.843,621.663,581.167Zm0.081,1.168c-0.031-.445-0.058-0.825-0.081-1.168C621.688,581.538,621.716,581.934,621.744,582.335Zm-0.2-2.92C621.51,578.985,621.515,579.049,621.54,579.415ZM464,363c-16.225.955-14,14-14,14,0.231,11.861-9,13-9,13-5.8,1.759-5,10-5,10-2.56,3.519-10,3-10,3-4.273.895-7,5-7,5-8.186,3.21-7,6-7,6-6.073,3.95-14,1-14,1-10.375,8.226-16,1-16,1a24.78,24.78,0,0,0-2-7,17.525,17.525,0,0,1-9-9c-7.356-4.266-4-16-4-16-6.778-9.436-12,11-12,11a25.8,25.8,0,0,0-21,6c4.46,2.716,5,15,5,15-2.886,3.623-6,17-6,17-13.568,17.974-2,20-2,20,15.028,2.511,3,9,3,9l-3.107,2.417c-1.4-4.483-3.839-8.065-7.9-10.068-2.457,2.447-16.641.033-24.921,3l-32.9,21.969H242.249c-6.895,1.208-12.937,3.605-20.934,2-7.766-7.032-6.256-21.742-10.965-31.954-4.75-10.3-19.407-28.716-28.908-34.949-12.046,1.683-28.957,13.342-42.865,6.99-14.169-6.472-17.83-24.634-34.889-27.96-17.195-3.352-21.442,7.839-31.9,9.986-10.862,2.229-59.493-20.277-62.8-25.963h1c6.035,2.968,9.213,4.88,16.946,3.994,7.8-13.924,32.189-4.429,45.855-11.982L87.738,351.5c-2.218-24.608.611-59.879,10.965-85.876l10.965-1c4.532,3.007,23.668,23.82,28.908,8.987l4.984-3.994c0.955,3.849-.747-15.905,1-20.97,3.661-10.63,16.884-13.6,17.944-28.958q-0.5-1.5-1-3c-4.1-.817-4.632.016-8.972,1l-10.965-9.986q0.5-2,1-3.994c4.679-5.672,12.334-18.923,7.974-29.957-4.674-6-6.974-2.438-10.965-7.988,2.06-6.209,8.908-12.4,14.953-14.978-1.082-10.218-.533-9.722,0-20.97h-7.975v-1l2.991-8.987c12.359-4.484,14.908-8.192,22.927-15.977,14.555,0.414,52.828-13.17,56.82-18.973-1.406-5.76-16.494-19.618-3.987-23.965l3.987-10.984c23.167,0.031,35.5-14.979,48.846-24.964,3.909,3.786,3.022,5.55,10.965,5.991,4.535-1.851,6.1-5.408,8.972-6.99,7.438-4.1,16.717,5.631,26.914,4.993,8.365-.524,45.721-5.14,52.833-9.986C382.062,16.09,385.333,8.6,389.782,5c12.459,0,19.312,2.942,26.915,6.99,1.714,11.1,5.335,23.084,0,34.949-2.405,5.35-6.7,5.5-7.975,11.983q0.5,10.484,1,20.97c-3.969,2.709-5.267,4.974-6.978,9.986-10.89.934-14.7,1.543-25.918,1-1.852,9.992-2.667,11.519-1.993,22.966,7.593,4.494,19.8,12.149,21.93,18.973,1.427,4.561-4.069,7.86-1,12.981l8.972,5.991c8.747,11.552,22.883,29.039,26.915,40.941q-0.5,7.987-1,15.977c3.817,10.071,12.339,16.279,20.934,19.971v1l-2.991,2c-9.77,3.238-21.581,8.388-32.9,10.985q0.5,2,1,3.994c2.063,0.757,17.755,14.6,23.12,19.366,0.741,9.082.86,24.615-5.817,31.984,0,0-4.3,6.9,4,15,0,0-4.187,18.663,7,32,0,0,.571,2.328,18,3,0,0,8.618,1.665,4.653,15H464Z"/>
</svg>
